<svg id="Layer_1" data-name="Layer 1" xmlns="http://www.w3.org/2000/svg" xmlns:xlink="http://www.w3.org/1999/xlink" viewBox="0 0 763.91 341.3">
  <defs>
    <style>
      .cls-1 {
        fill: #36538e;
      }

      .cls-2 {
        fill: url(#linear-gradient);
      }

      .cls-3 {
        fill: url(#linear-gradient-2);
      }
    </style>
    <linearGradient id="linear-gradient" y1="138.1" x2="190.41" y2="138.1" gradientTransform="matrix(1, 0, 0, -1, 0, 344)" gradientUnits="userSpaceOnUse">
      <stop offset="0" stop-color="#043983"/>
      <stop offset="0.18" stop-color="#1a4a91"/>
      <stop offset="0.56" stop-color="#487db9"/>
      <stop offset="1" stop-color="#90caef"/>
    </linearGradient>
    <linearGradient id="linear-gradient-2" y1="208.6" x2="190.41" y2="208.6" gradientTransform="matrix(1, 0, 0, -1, 0, 344)" gradientUnits="userSpaceOnUse">
      <stop offset="0" stop-color="#e61771"/>
      <stop offset="1" stop-color="#a2165a"/>
    </linearGradient>
  </defs>
  <title>logo_colour</title>
  <g>
    <g>
      <path class="cls-1" d="M279,96.9H233V56.5h141.4V96.9h-46.9V237H279Z"/>
      <path class="cls-1" d="M439.71,56.4V236.9h-48.5V56.4Z"/>
      <path class="cls-1" d="M463.11,58.8c15.5-2.4,36.2-3.7,57.6-3.7,34.5,0,56.2,5.6,74.2,17.9,19.8,13.7,32.7,36.2,32.7,69.4,0,36.7-13.9,60.5-31.6,74.2-19.8,15.5-49.3,22.5-84.6,22.5-23.3,0-38.8-1.6-48.2-3.2V58.8Zm48.5,142a64.44,64.44,0,0,0,10.2.5c31.3.5,54.4-16.9,54.4-57.6,0-35.1-20.9-51.7-49.8-51.7-7.8,0-12.3.5-14.7,1.1V200.8Z"/>
      <path class="cls-1" d="M755.81,164.1H691v33.2h72.6v39.6h-121V56.4h117.3V95.8H691V125h64.8Z"/>
    </g>
    <g>
      <path class="cls-1" d="M240.31,262.5h-6.5v-1.2h14.4v1.2h-6.5v18.6h-1.4Z"/>
      <path class="cls-1" d="M252.21,274.2l-2.5,6.9h-1.4l7.2-19.8h1.4l7.2,19.8h-1.4l-2.5-6.9Zm7.4-1.2-2.4-6.6c-.5-1.4-.7-2.4-1-3.5h-.1c-.3,1.1-.6,2.2-1,3.4l-2.5,6.7Z"/>
      <path class="cls-1" d="M268.91,261.4h1.4v10h.1c.6-.8,1.2-1.4,1.7-2.1l7.1-7.9h1.7l-7.6,8.4,8.3,11.4h-1.7l-7.6-10.4-2,2.2v8.2h-1.4Z"/>
      <path class="cls-1" d="M286.71,261.4v19.8h-1.4V261.4Z"/>
      <path class="cls-1" d="M293.41,281.1V261.3h1.3l7.8,11.7c1.6,2.5,2.7,4.3,3.7,6.2h.1c-.2-2.7-.2-4.9-.2-8v-9.8h1.4v19.8h-1.3l-7.6-11.5c-1.5-2.3-2.8-4.4-3.9-6.4h-.1c.1,2.4.2,4.6.2,7.9v10h-1.4Z"/>
      <path class="cls-1" d="M328.21,280.3a15.84,15.84,0,0,1-5.8,1.1,10.11,10.11,0,0,1-7.1-2.6,10.39,10.39,0,0,1-2.7-7.4c0-5.5,3.6-10.1,10.4-10.1a10.36,10.36,0,0,1,4.6.9l-.4,1.2a9.51,9.51,0,0,0-4.3-.9c-5.5,0-8.9,3.5-8.9,8.9,0,5.6,3.3,8.9,8.6,8.9a9.6,9.6,0,0,0,4.2-.7v-7h-4.6v-1.1h6v8.8Z"/>
      <path class="cls-1" d="M343.81,261.4v19.8h-1.4V261.4Z"/>
      <path class="cls-1" d="M350.41,261.6a37.74,37.74,0,0,1,5.1-.4c3.6,0,6.4,1,8,2.7a9.14,9.14,0,0,1,2.5,6.8,10.89,10.89,0,0,1-2.6,7.5c-1.8,1.9-4.8,3-8.6,3a31.68,31.68,0,0,1-4.4-.2Zm1.4,18.4a30.14,30.14,0,0,0,3.2.1c6.4,0,9.5-3.5,9.5-9.3,0-5-2.8-8.4-9.2-8.4a17.25,17.25,0,0,0-3.6.3V280Z"/>
      <path class="cls-1" d="M380.61,271.3h-8v8.6h8.9v1.2h-10.3V261.3H381v1.2h-8.4v7.6h8Z"/>
      <path class="cls-1" d="M389.21,274.2l-2.5,6.9h-1.4l7.2-19.8h1.4l7.2,19.8h-1.4l-2.5-6.9Zm7.4-1.2-2.4-6.6c-.5-1.4-.7-2.4-1-3.5h-.1c-.3,1.1-.6,2.2-1,3.4l-2.5,6.7Z"/>
      <path class="cls-1" d="M405.21,278.9a7.64,7.64,0,0,0,4.4,1.3c3,0,4.8-1.7,4.8-4.1,0-2.2-1.1-3.5-4-4.6-3.2-1.1-5.1-2.8-5.1-5.5,0-2.9,2.4-5,5.8-5a8.37,8.37,0,0,1,4,.9l-.5,1.2a6.18,6.18,0,0,0-3.5-.9c-3.2,0-4.3,2.1-4.3,3.6,0,2.2,1.3,3.3,4.1,4.4,3.3,1.3,5,2.8,5,5.7s-2.1,5.5-6.3,5.5a10,10,0,0,1-4.8-1.3Z"/>
      <path class="cls-1" d="M419.71,284.8a31.32,31.32,0,0,0,1.5-6.2l1.9-.3a34.51,34.51,0,0,1-2.3,6.4Z"/>
      <path class="cls-1" d="M436.51,261.6a37.74,37.74,0,0,1,5.1-.4c3.6,0,6.4,1,8,2.7a9.14,9.14,0,0,1,2.5,6.8,10.89,10.89,0,0,1-2.6,7.5c-1.8,1.9-4.8,3-8.6,3a31.68,31.68,0,0,1-4.4-.2Zm1.4,18.4a30.14,30.14,0,0,0,3.2.1c6.4,0,9.5-3.5,9.5-9.3,0-5-2.8-8.4-9.2-8.4a17.25,17.25,0,0,0-3.6.3V280Z"/>
      <path class="cls-1" d="M466.71,271.3h-8v8.6h8.9v1.2h-10.3V261.3h9.8v1.2h-8.4v7.6h8Z"/>
      <path class="cls-1" d="M472.91,261.4h1.4V280h8.9v1.2h-10.3V261.4Z"/>
      <path class="cls-1" d="M489.31,261.4v19.8h-1.4V261.4Z"/>
      <path class="cls-1" d="M500.11,281.1l-6.6-19.8H495l3.5,10.6a75.8,75.8,0,0,1,2.3,7.6h.1c.6-2.2,1.5-4.8,2.5-7.6l3.9-10.6h1.5l-7.4,19.8Z"/>
      <path class="cls-1" d="M522.11,271.3h-8v8.6H523v1.2h-10.3V261.3h9.8v1.2h-8.4v7.6h8Z"/>
      <path class="cls-1" d="M528.21,261.6a19.64,19.64,0,0,1,4.3-.4,7.9,7.9,0,0,1,5.4,1.6,4.67,4.67,0,0,1,1.4,3.5,5.28,5.28,0,0,1-3.9,5.2v.1c1.6.5,2.6,2,3.1,4.2a27.1,27.1,0,0,0,1.5,5.3h-1.5a36.53,36.53,0,0,1-1.3-4.8c-.6-2.8-1.8-4.1-4.5-4.3h-3.1v9.1h-1.4Zm1.4,9.3h3.2c3.1,0,5.1-1.7,5.1-4.3,0-3-2.2-4.3-5.4-4.3a9.29,9.29,0,0,0-2.9.3v8.3Z"/>
      <path class="cls-1" d="M546.31,261.4v19.8h-1.4V261.4Z"/>
      <path class="cls-1" d="M552.91,281.1V261.3h1.3L562,273c1.6,2.5,2.7,4.3,3.7,6.2h.1c-.2-2.7-.2-4.9-.2-8v-9.8H567v19.8h-1.3l-7.6-11.5c-1.5-2.3-2.8-4.4-3.9-6.4h-.1c.1,2.4.2,4.6.2,7.9v10h-1.4Z"/>
      <path class="cls-1" d="M587.81,280.3a15.84,15.84,0,0,1-5.8,1.1,10.11,10.11,0,0,1-7.1-2.6,10.39,10.39,0,0,1-2.7-7.4c0-5.5,3.6-10.1,10.4-10.1a10.36,10.36,0,0,1,4.6.9l-.4,1.2a9.51,9.51,0,0,0-4.3-.9c-5.5,0-8.9,3.5-8.9,8.9,0,5.6,3.3,8.9,8.6,8.9a9.6,9.6,0,0,0,4.2-.7v-7h-4.6v-1.1h6Z"/>
      <path class="cls-1" d="M611.31,271.3h-8v8.6h8.9v1.2H602V261.3h9.8v1.2h-8.4v7.6h8v1.2Z"/>
      <path class="cls-1" d="M628.71,281.1l-3-4.9c-1.2-1.8-1.9-3-2.6-4.1H623c-.6,1.1-1.3,2.2-2.5,4.1l-2.8,4.8H616l6.3-10-6.1-9.7h1.6l3.2,5.3c.8,1.3,1.4,2.3,2.1,3.4h.1a35.35,35.35,0,0,1,2.1-3.4l3.3-5.3h1.7l-6.4,9.6,6.4,10.1h-1.6Z"/>
      <path class="cls-1" d="M648.21,280.4a12.65,12.65,0,0,1-5.3,1c-4.8,0-9.4-3.1-9.4-10.1,0-5.9,3.8-10.3,10.1-10.3a10.33,10.33,0,0,1,4.6.9l-.5,1.2a9.64,9.64,0,0,0-4.1-.8c-5.4,0-8.7,3.5-8.7,9.1,0,5.4,3.1,8.8,8.4,8.8a11.59,11.59,0,0,0,4.5-.9Z"/>
      <path class="cls-1" d="M662.71,271.3h-8v8.6h8.9v1.2h-10.3V261.3h9.8v1.2h-8.4v7.6h8Z"/>
      <path class="cls-1" d="M668.81,261.4h1.4V280h8.9v1.2h-10.3V261.4Z"/>
      <path class="cls-1" d="M683.81,261.4h1.4V280h8.9v1.2h-10.3V261.4Z"/>
      <path class="cls-1" d="M708.21,271.3h-8v8.6h8.9v1.2h-10.3V261.3h9.8v1.2h-8.4v7.6h8Z"/>
      <path class="cls-1" d="M714.41,281.1V261.3h1.3l7.8,11.7c1.6,2.5,2.7,4.3,3.7,6.2h.1c-.2-2.7-.2-4.9-.2-8v-9.8h1.4v19.8h-1.3l-7.6-11.5c-1.5-2.3-2.8-4.4-3.9-6.4h-.1c.1,2.4.2,4.6.2,7.9v10h-1.4Z"/>
      <path class="cls-1" d="M748.51,280.4a12.65,12.65,0,0,1-5.3,1c-4.8,0-9.4-3.1-9.4-10.1,0-5.9,3.8-10.3,10.1-10.3a10.33,10.33,0,0,1,4.6.9l-.5,1.2a9.64,9.64,0,0,0-4.1-.8c-5.4,0-8.7,3.5-8.7,9.1,0,5.4,3.1,8.8,8.4,8.8a11.59,11.59,0,0,0,4.5-.9Z"/>
      <path class="cls-1" d="M763,271.3h-8v8.6h8.9v1.2h-10.3V261.3h9.8v1.2H755v7.6h8Z"/>
    </g>
    <path class="cls-2" d="M94.41,341.3h0a92.74,92.74,0,0,1-41.8-9.8A96.14,96.14,0,0,1,14,195.9c15.9-25.7,32.7-51.3,49-76.1,8.1-12.3,32.2-49.3,32.2-49.3l31.7,49.2c16.2,24.9,33,50.6,49.2,76.1a96,96,0,0,1,4.4,92.9C164.51,320.6,130.71,341.3,94.41,341.3Zm.7-238.1c-5.8,8.8-11.6,17.7-17.3,26.3-16.2,24.7-33,50.2-48.8,75.7a78.57,78.57,0,0,0,31.4,110.5,75,75,0,0,0,33.9,7.9c29.7,0,57.3-16.8,70.3-42.9a78,78,0,0,0-3.5-75.5c-16-25.3-32.8-51-49-75.8C106.41,120.6,100.71,111.9,95.11,103.2Z"/>
    <path class="cls-3" d="M180.51,52.7c-16-32-49.8-52.7-86.1-52.7h0a92.74,92.74,0,0,0-41.8,9.8A96.14,96.14,0,0,0,14,145.4q7.8,12.6,15.9,25.2l10.5-16.4c-3.8-6-7.6-12.1-11.4-18.1A78.57,78.57,0,0,1,60.41,25.6a75,75,0,0,1,33.9-7.9c29.7,0,57.3,16.8,70.3,42.9a78,78,0,0,1-3.5,75.5c-16,25.3-32.8,51-49,75.8-5.7,8.7-11.4,17.4-17.1,26.2-5.8-8.8-11.6-17.7-17.3-26.3-8.9-13.5-17.9-27.3-26.9-41.2L40.41,187c7.6,11.6,15.1,23.2,22.6,34.5,8.1,12.3,32.2,49.3,32.2,49.3l31.7-49.2c16.2-24.9,33-50.6,49.2-76.1A95.83,95.83,0,0,0,180.51,52.7Z"/>
  </g>
</svg>
